<svg width="244" height="48" viewBox="0 0 244 48" fill="none" xmlns="http://www.w3.org/2000/svg">
<path d="M22.5959 46.8645C24.9937 40.1175 32.6667 25.2741 44.1761 19.8765C44.2627 18.288 43.924 16.0529 42.9863 13.6773M22.5959 1.13477C22.5959 1.7345 22.6432 31.7393 22.6669 46.6667M22.5959 1.13477C26.1112 1.13477 29.1062 1.6955 31.6437 2.6341M22.5959 1.13477C19.4969 1.44481 16.8162 2.04129 14.5033 2.8444M22.6669 46.6667C22.9666 41.1691 9.10823 22.1255 1.01563 19.8765C0.924848 18.2113 1.21903 16.0005 2.17305 13.6773M22.6669 46.6667C23.9481 40.101 29.8056 24.3112 42.9863 13.6773M22.6669 46.6667C23.2427 39.7357 27.2716 22.1255 38.7811 7.13211M22.6669 46.6667C23.28 37.9865 25.9337 17.0277 31.6437 2.6341M22.6669 46.6667C22.0438 37.6269 19.5387 16.2068 14.5033 2.8444M22.6669 46.6667C22.0733 39.7357 18.0899 22.1255 6.90464 7.13211M22.6669 46.6667C21.017 39.1014 14.6084 21.9122 2.17305 13.6773M42.9863 13.6773C41.3465 9.5229 37.875 4.93908 31.6437 2.6341M14.5033 2.8444C11.3165 3.95093 8.82775 5.44973 6.90464 7.13211M6.90464 7.13211C4.5771 9.16829 3.07813 11.4734 2.17305 13.6773" stroke="#FFDE9D" stroke-width="1.90541" stroke-linecap="round"/>
<path d="M70.0563 22.8188C70.0563 23.9005 69.8776 24.9277 69.5204 25.9002C69.1631 26.8728 68.657 27.7312 68.002 28.4755C67.3569 29.2099 66.573 29.7954 65.65 30.2321C64.737 30.6588 63.7148 30.8721 62.5835 30.8721C61.4522 30.8721 60.425 30.6588 59.5021 30.2321C58.5891 29.8053 57.8051 29.2297 57.1501 28.5053C56.5051 27.7709 56.0089 26.9174 55.6615 25.9449C55.3142 24.9723 55.1405 23.9402 55.1405 22.8486C55.1405 21.747 55.3241 20.7199 55.6913 19.7672C56.0684 18.8046 56.5944 17.971 57.2692 17.2664C57.944 16.5518 58.7479 15.9911 59.6807 15.5842C60.6136 15.1674 61.6407 14.959 62.7621 14.959C63.8637 14.959 64.8611 15.1724 65.7542 15.5991C66.6474 16.0159 67.4115 16.5866 68.0467 17.311C68.6917 18.0255 69.1879 18.8592 69.5353 19.8119C69.8826 20.7646 70.0563 21.7669 70.0563 22.8188ZM67.4959 22.9677C67.4959 22.412 67.4661 21.8463 67.4066 21.2707C67.3569 20.6951 67.2627 20.1394 67.1237 19.6035C66.9848 19.0676 66.7962 18.5664 66.5581 18.1C66.3199 17.6336 66.0172 17.2267 65.65 16.8793C65.2828 16.532 64.8412 16.2591 64.3252 16.0606C63.819 15.8522 63.2186 15.748 62.524 15.748C61.8888 15.748 61.3281 15.8522 60.8418 16.0606C60.3655 16.2591 59.9487 16.532 59.5914 16.8793C59.2342 17.2267 58.9364 17.6336 58.6983 18.1C58.4601 18.5664 58.2666 19.0626 58.1177 19.5886C57.9788 20.1046 57.8795 20.6405 57.82 21.1963C57.7605 21.7421 57.7307 22.273 57.7307 22.7891C57.7307 23.2952 57.7605 23.8261 57.82 24.3819C57.8795 24.9376 57.9837 25.4834 58.1326 26.0193C58.2815 26.5552 58.475 27.0663 58.7132 27.5526C58.9513 28.0389 59.249 28.4656 59.6063 28.8328C59.9636 29.2 60.3853 29.4927 60.8716 29.711C61.3579 29.9294 61.9186 30.0385 62.5537 30.0385C63.2186 30.0385 63.7992 29.9393 64.2954 29.7408C64.8015 29.5423 65.2382 29.2744 65.6054 28.937C65.9726 28.5896 66.2752 28.1877 66.5134 27.7312C66.7615 27.2648 66.955 26.7735 67.094 26.2575C67.2428 25.7315 67.347 25.1907 67.4066 24.6349C67.4661 24.0693 67.4959 23.5135 67.4959 22.9677ZM85.4484 26.9274C84.7636 28.1579 83.9002 29.1255 82.8582 29.8301C81.8261 30.5248 80.5955 30.8721 79.1665 30.8721C78.0352 30.8721 77.013 30.6737 76.1 30.2767C75.187 29.8798 74.4079 29.3339 73.7629 28.6393C73.1178 27.9446 72.6216 27.1258 72.2743 26.1831C71.9269 25.2403 71.7533 24.2181 71.7533 23.1166C71.7533 21.9852 71.9369 20.9283 72.3041 19.9458C72.6812 18.9534 73.2071 18.0901 73.882 17.3557C74.5667 16.6114 75.3805 16.0259 76.3233 15.5991C77.276 15.1724 78.3329 14.959 79.494 14.959C79.881 14.959 80.2383 14.9888 80.5658 15.0484C80.9032 15.098 81.2257 15.1674 81.5334 15.2568C81.8509 15.3461 82.1635 15.4552 82.4712 15.5842C82.7788 15.7033 83.1014 15.8373 83.4388 15.9862C83.5876 15.9862 83.7166 15.9514 83.8258 15.882C83.935 15.8125 84.0243 15.7281 84.0937 15.6289C84.1632 15.5297 84.2178 15.4205 84.2575 15.3014C84.3071 15.1724 84.3468 15.0583 84.3766 14.959H84.7785L85.106 20.1096H84.7785C84.5899 19.4745 84.3468 18.8939 84.0491 18.3679C83.7613 17.832 83.409 17.3706 82.9922 16.9835C82.5853 16.5965 82.109 16.2938 81.5631 16.0755C81.0173 15.8572 80.3921 15.748 79.6875 15.748C78.9928 15.748 78.3775 15.8522 77.8416 16.0606C77.3157 16.2591 76.8492 16.537 76.4424 16.8942C76.0454 17.2515 75.708 17.6683 75.4301 18.1446C75.1622 18.621 74.9438 19.137 74.7751 19.6928C74.6163 20.2386 74.4973 20.8092 74.4179 21.4047C74.3484 21.9902 74.3137 22.5707 74.3137 23.1463C74.3137 24.0494 74.4228 24.9078 74.6412 25.7216C74.8595 26.5354 75.1969 27.2499 75.6534 27.8652C76.1198 28.4805 76.7103 28.9667 77.4248 29.324C78.1493 29.6813 79.0127 29.8599 80.015 29.8599C80.6501 29.8599 81.2059 29.7855 81.6822 29.6366C82.1685 29.4878 82.6052 29.2793 82.9922 29.0114C83.3891 28.7335 83.7563 28.4011 84.0937 28.014C84.4312 27.6171 84.7686 27.1755 85.106 26.6892L85.4484 26.9274ZM98.4587 30.5H86.7583V30.0683C87.2347 30.0683 87.6118 30.0385 87.8897 29.979C88.1775 29.9194 88.3958 29.8103 88.5447 29.6515C88.6935 29.4828 88.7928 29.2545 88.8424 28.9667C88.892 28.669 88.9168 28.287 88.9168 27.8205V17.9065C88.9168 17.4301 88.897 17.048 88.8573 16.7602C88.8176 16.4724 88.7233 16.2492 88.5744 16.0904C88.4256 15.9316 88.2072 15.8274 87.9194 15.7778C87.6316 15.7182 87.2446 15.6885 86.7583 15.6885V15.2865H98.4587L98.6374 18.6061H98.2205C98.0915 18.1198 97.9675 17.7179 97.8484 17.4003C97.7392 17.0728 97.5854 16.8148 97.3869 16.6263C97.1984 16.4377 96.9354 16.3037 96.598 16.2243C96.2705 16.145 95.8239 16.1053 95.2582 16.1053H91.0604V22.1192H94.4097C94.8762 22.1192 95.2483 22.0894 95.5262 22.0299C95.814 21.9604 96.0422 21.8463 96.2109 21.6875C96.3896 21.5188 96.5186 21.2955 96.598 21.0176C96.6873 20.7298 96.7617 20.3626 96.8213 19.9161H97.2381V25.2304H96.8213C96.7617 24.7838 96.6873 24.4166 96.598 24.1288C96.5186 23.841 96.3945 23.6128 96.2258 23.444C96.0571 23.2654 95.8289 23.1414 95.5411 23.0719C95.2632 23.0024 94.8861 22.9677 94.4097 22.9677H91.0604V27.9694C91.0604 28.2473 91.0653 28.4954 91.0753 28.7137C91.0951 28.9221 91.1447 29.1007 91.2241 29.2496C91.3035 29.3885 91.4276 29.4977 91.5963 29.5771C91.7749 29.6465 92.023 29.6813 92.3406 29.6813H94.901C95.5659 29.6813 96.1117 29.6267 96.5384 29.5175C96.9652 29.4084 97.3323 29.2347 97.64 28.9965C97.9576 28.7583 98.2404 28.4507 98.4885 28.0736C98.7366 27.6865 99.0145 27.2251 99.3221 26.6892H99.7985L98.4587 30.5ZM110.621 30.5V30.0683C110.789 30.0683 110.963 30.0584 111.142 30.0385C111.32 30.0088 111.484 29.9591 111.633 29.8897C111.782 29.8202 111.906 29.7259 112.005 29.6068C112.104 29.4778 112.154 29.3091 112.154 29.1007C112.154 28.9022 112.094 28.6244 111.975 28.2671C111.856 27.9098 111.722 27.5427 111.573 27.1655C111.424 26.7884 111.276 26.4361 111.127 26.1086C110.978 25.7811 110.874 25.5479 110.814 25.409H104.919C104.88 25.4884 104.815 25.6224 104.726 25.8109C104.646 25.9895 104.552 26.198 104.443 26.4361C104.334 26.6644 104.225 26.9075 104.115 27.1655C104.006 27.4236 103.902 27.6766 103.803 27.9247C103.713 28.1728 103.639 28.4011 103.579 28.6095C103.52 28.8179 103.49 28.9816 103.49 29.1007C103.49 29.2992 103.555 29.4629 103.684 29.592C103.813 29.711 103.971 29.8053 104.16 29.8748C104.349 29.9443 104.542 29.9939 104.741 30.0236C104.939 30.0435 105.113 30.0584 105.262 30.0683V30.5H100.468V30.0683C100.826 30.0584 101.133 29.974 101.391 29.8152C101.649 29.6565 101.873 29.453 102.061 29.2049C102.26 28.9568 102.428 28.6839 102.567 28.3862C102.706 28.0785 102.84 27.7759 102.969 27.4781L108.343 14.959H108.73L114.015 27.5675C114.163 27.9148 114.302 28.2373 114.431 28.5351C114.57 28.8228 114.734 29.0809 114.923 29.3091C115.111 29.5274 115.339 29.7061 115.607 29.845C115.875 29.974 116.218 30.0485 116.635 30.0683V30.5H110.621ZM107.911 18.3977L105.262 24.5903H110.501L107.911 18.3977ZM133.098 15.6885C132.622 15.6885 132.24 15.7182 131.952 15.7778C131.664 15.8373 131.441 15.9514 131.282 16.1201C131.133 16.2789 131.034 16.5022 130.985 16.79C130.945 17.0778 130.925 17.45 130.925 17.9065V30.7382H130.538L120.475 18.487V27.8503C120.475 28.3266 120.495 28.7087 120.535 28.9965C120.584 29.2843 120.683 29.5076 120.832 29.6664C120.981 29.8252 121.2 29.9343 121.487 29.9939C121.775 30.0435 122.157 30.0683 122.634 30.0683V30.5H117.334V30.0683C117.81 30.0683 118.188 30.0385 118.465 29.979C118.753 29.9194 118.972 29.8103 119.12 29.6515C119.269 29.4828 119.369 29.2545 119.418 28.9667C119.468 28.6789 119.493 28.3068 119.493 27.8503V17.2664C119.304 17.0083 119.125 16.7851 118.957 16.5965C118.798 16.398 118.624 16.2343 118.436 16.1053C118.257 15.9663 118.049 15.8621 117.81 15.7927C117.572 15.7232 117.28 15.6885 116.932 15.6885V15.2865H120.654L129.957 26.6892V17.9065C129.957 17.45 129.933 17.0778 129.883 16.79C129.833 16.5022 129.729 16.2789 129.57 16.1201C129.422 15.9514 129.203 15.8373 128.915 15.7778C128.638 15.7182 128.26 15.6885 127.784 15.6885V15.2865H133.098V15.6885ZM149.101 22.8188C149.101 23.9005 148.922 24.9277 148.565 25.9002C148.208 26.8728 147.702 27.7312 147.047 28.4755C146.401 29.2099 145.617 29.7954 144.695 30.2321C143.782 30.6588 142.759 30.8721 141.628 30.8721C140.497 30.8721 139.47 30.6588 138.547 30.2321C137.634 29.8053 136.85 29.2297 136.195 28.5053C135.55 27.7709 135.053 26.9174 134.706 25.9449C134.359 24.9723 134.185 23.9402 134.185 22.8486C134.185 21.747 134.369 20.7199 134.736 19.7672C135.113 18.8046 135.639 17.971 136.314 17.2664C136.989 16.5518 137.792 15.9911 138.725 15.5842C139.658 15.1674 140.685 14.959 141.807 14.959C142.908 14.959 143.906 15.1724 144.799 15.5991C145.692 16.0159 146.456 16.5866 147.091 17.311C147.736 18.0255 148.232 18.8592 148.58 19.8119C148.927 20.7646 149.101 21.7669 149.101 22.8188ZM146.54 22.9677C146.54 22.412 146.511 21.8463 146.451 21.2707C146.401 20.6951 146.307 20.1394 146.168 19.6035C146.029 19.0676 145.841 18.5664 145.603 18.1C145.364 17.6336 145.062 17.2267 144.695 16.8793C144.327 16.532 143.886 16.2591 143.37 16.0606C142.864 15.8522 142.263 15.748 141.569 15.748C140.933 15.748 140.373 15.8522 139.886 16.0606C139.41 16.2591 138.993 16.532 138.636 16.8793C138.279 17.2267 137.981 17.6336 137.743 18.1C137.505 18.5664 137.311 19.0626 137.162 19.5886C137.023 20.1046 136.924 20.6405 136.865 21.1963C136.805 21.7421 136.775 22.273 136.775 22.7891C136.775 23.2952 136.805 23.8261 136.865 24.3819C136.924 24.9376 137.028 25.4834 137.177 26.0193C137.326 26.5552 137.52 27.0663 137.758 27.5526C137.996 28.0389 138.294 28.4656 138.651 28.8328C139.008 29.2 139.43 29.4927 139.916 29.711C140.402 29.9294 140.963 30.0385 141.598 30.0385C142.263 30.0385 142.844 29.9393 143.34 29.7408C143.846 29.5423 144.283 29.2744 144.65 28.937C145.017 28.5896 145.32 28.1877 145.558 27.7312C145.806 27.2648 146 26.7735 146.139 26.2575C146.287 25.7315 146.392 25.1907 146.451 24.6349C146.511 24.0693 146.54 23.5135 146.54 22.9677ZM166.517 30.5V30.0683C166.994 30.0683 167.376 30.0385 167.664 29.979C167.961 29.9095 168.185 29.7954 168.334 29.6366C168.492 29.4679 168.596 29.2397 168.646 28.9519C168.696 28.6541 168.721 28.277 168.721 27.8205V23.1463H161.605V27.8205C161.605 28.287 161.63 28.669 161.679 28.9667C161.729 29.2545 161.833 29.4828 161.992 29.6515C162.151 29.8103 162.374 29.9194 162.662 29.979C162.96 30.0385 163.352 30.0683 163.838 30.0683V30.5H157.318V30.0683C157.804 30.0683 158.191 30.0385 158.479 29.979C158.767 29.9194 158.985 29.8103 159.134 29.6515C159.283 29.4828 159.377 29.2545 159.417 28.9667C159.457 28.669 159.476 28.287 159.476 27.8205V17.966C159.476 17.4996 159.452 17.1225 159.402 16.8347C159.362 16.537 159.268 16.3037 159.119 16.135C158.97 15.9663 158.752 15.8522 158.464 15.7927C158.176 15.7232 157.794 15.6885 157.318 15.6885V15.2865H163.838V15.6885C163.362 15.6885 162.98 15.7232 162.692 15.7927C162.404 15.8522 162.176 15.9663 162.007 16.135C161.848 16.3037 161.739 16.537 161.679 16.8347C161.63 17.1225 161.605 17.4996 161.605 17.966V22.3276H168.721V17.966C168.721 17.4996 168.696 17.1225 168.646 16.8347C168.596 16.537 168.492 16.3037 168.334 16.135C168.185 15.9663 167.961 15.8522 167.664 15.7927C167.376 15.7232 166.994 15.6885 166.517 15.6885V15.2865H173.037V15.6885C172.591 15.6885 172.224 15.7182 171.936 15.7778C171.658 15.8274 171.44 15.9316 171.281 16.0904C171.132 16.2392 171.028 16.4526 170.968 16.7305C170.909 16.9984 170.879 17.3507 170.879 17.7874V27.9694C170.879 28.4259 170.909 28.7931 170.968 29.0709C171.028 29.3488 171.132 29.5622 171.281 29.711C171.44 29.8599 171.658 29.9591 171.936 30.0088C172.224 30.0485 172.591 30.0683 173.037 30.0683V30.5H166.517ZM189.204 22.8188C189.204 23.9005 189.025 24.9277 188.668 25.9002C188.31 26.8728 187.804 27.7312 187.149 28.4755C186.504 29.2099 185.72 29.7954 184.797 30.2321C183.884 30.6588 182.862 30.8721 181.731 30.8721C180.6 30.8721 179.572 30.6588 178.649 30.2321C177.736 29.8053 176.952 29.2297 176.298 28.5053C175.652 27.7709 175.156 26.9174 174.809 25.9449C174.462 24.9723 174.288 23.9402 174.288 22.8486C174.288 21.747 174.471 20.7199 174.839 19.7672C175.216 18.8046 175.742 17.971 176.417 17.2664C177.091 16.5518 177.895 15.9911 178.828 15.5842C179.761 15.1674 180.788 14.959 181.91 14.959C183.011 14.959 184.008 15.1724 184.902 15.5991C185.795 16.0159 186.559 16.5866 187.194 17.311C187.839 18.0255 188.335 18.8592 188.683 19.8119C189.03 20.7646 189.204 21.7669 189.204 22.8188ZM186.643 22.9677C186.643 22.412 186.613 21.8463 186.554 21.2707C186.504 20.6951 186.41 20.1394 186.271 19.6035C186.132 19.0676 185.944 18.5664 185.705 18.1C185.467 17.6336 185.165 17.2267 184.797 16.8793C184.43 16.532 183.989 16.2591 183.473 16.0606C182.966 15.8522 182.366 15.748 181.671 15.748C181.036 15.748 180.476 15.8522 179.989 16.0606C179.513 16.2591 179.096 16.532 178.739 16.8793C178.382 17.2267 178.084 17.6336 177.846 18.1C177.607 18.5664 177.414 19.0626 177.265 19.5886C177.126 20.1046 177.027 20.6405 176.967 21.1963C176.908 21.7421 176.878 22.273 176.878 22.7891C176.878 23.2952 176.908 23.8261 176.967 24.3819C177.027 24.9376 177.131 25.4834 177.28 26.0193C177.429 26.5552 177.622 27.0663 177.861 27.5526C178.099 28.0389 178.396 28.4656 178.754 28.8328C179.111 29.2 179.533 29.4927 180.019 29.711C180.505 29.9294 181.066 30.0385 181.701 30.0385C182.366 30.0385 182.947 29.9393 183.443 29.7408C183.949 29.5423 184.386 29.2744 184.753 28.937C185.12 28.5896 185.423 28.1877 185.661 27.7312C185.909 27.2648 186.102 26.7735 186.241 26.2575C186.39 25.7315 186.494 25.1907 186.554 24.6349C186.613 24.0693 186.643 23.5135 186.643 22.9677ZM203.062 18.8592C202.973 17.9958 202.71 17.3458 202.274 16.9091C201.837 16.4625 201.167 16.2392 200.264 16.2392H198.135V27.8503C198.135 28.3167 198.155 28.6938 198.195 28.9816C198.234 29.2694 198.329 29.4977 198.478 29.6664C198.626 29.8252 198.84 29.9343 199.118 29.9939C199.406 30.0435 199.788 30.0683 200.264 30.0683V30.5H193.833V30.0683C194.31 30.0683 194.687 30.0385 194.965 29.979C195.242 29.9194 195.456 29.8103 195.605 29.6515C195.753 29.4828 195.848 29.2545 195.887 28.9667C195.937 28.6789 195.962 28.3068 195.962 27.8503V16.2392H194.131C193.655 16.2392 193.238 16.2839 192.88 16.3732C192.523 16.4526 192.221 16.5915 191.972 16.79C191.734 16.9885 191.546 17.2564 191.407 17.5939C191.278 17.9313 191.193 18.353 191.154 18.8592H190.633L190.782 15.2865H203.405L203.554 18.8592H203.062ZM216.266 30.5H204.566V30.0683C205.042 30.0683 205.419 30.0385 205.697 29.979C205.985 29.9194 206.203 29.8103 206.352 29.6515C206.501 29.4828 206.6 29.2545 206.65 28.9667C206.7 28.669 206.724 28.287 206.724 27.8205V17.9065C206.724 17.4301 206.705 17.048 206.665 16.7602C206.625 16.4724 206.531 16.2492 206.382 16.0904C206.233 15.9316 206.015 15.8274 205.727 15.7778C205.439 15.7182 205.052 15.6885 204.566 15.6885V15.2865H216.266L216.445 18.6061H216.028C215.899 18.1198 215.775 17.7179 215.656 17.4003C215.547 17.0728 215.393 16.8148 215.195 16.6263C215.006 16.4377 214.743 16.3037 214.406 16.2243C214.078 16.145 213.632 16.1053 213.066 16.1053H208.868V22.1192H212.217C212.684 22.1192 213.056 22.0894 213.334 22.0299C213.622 21.9604 213.85 21.8463 214.019 21.6875C214.197 21.5188 214.326 21.2955 214.406 21.0176C214.495 20.7298 214.569 20.3626 214.629 19.9161H215.046V25.2304H214.629C214.569 24.7838 214.495 24.4166 214.406 24.1288C214.326 23.841 214.202 23.6128 214.033 23.444C213.865 23.2654 213.636 23.1414 213.349 23.0719C213.071 23.0024 212.694 22.9677 212.217 22.9677H208.868V27.9694C208.868 28.2473 208.873 28.4954 208.883 28.7137C208.903 28.9221 208.952 29.1007 209.032 29.2496C209.111 29.3885 209.235 29.4977 209.404 29.5771C209.583 29.6465 209.831 29.6813 210.148 29.6813H212.709C213.374 29.6813 213.919 29.6267 214.346 29.5175C214.773 29.4084 215.14 29.2347 215.448 28.9965C215.765 28.7583 216.048 28.4507 216.296 28.0736C216.544 27.6865 216.822 27.2251 217.13 26.6892H217.606L216.266 30.5ZM230.348 30.5H218.529V30.0683C218.886 30.0683 219.204 30.0485 219.482 30.0088C219.76 29.9591 219.988 29.8698 220.166 29.7408C220.355 29.6019 220.499 29.4084 220.598 29.1603C220.697 28.9122 220.747 28.5847 220.747 28.1778V17.6087C220.747 17.2118 220.697 16.8893 220.598 16.6412C220.499 16.3931 220.355 16.2045 220.166 16.0755C219.988 15.9365 219.76 15.8423 219.482 15.7927C219.204 15.743 218.886 15.7182 218.529 15.7182V15.2865H225.138V15.7182C224.771 15.7182 224.449 15.743 224.171 15.7927C223.893 15.8423 223.66 15.9365 223.471 16.0755C223.283 16.2045 223.139 16.3931 223.039 16.6412C222.94 16.8893 222.891 17.2118 222.891 17.6087V27.627C222.891 28.0041 222.92 28.3167 222.98 28.5648C223.039 28.803 223.139 28.9965 223.278 29.1454C223.427 29.2843 223.625 29.3836 223.873 29.4431C224.121 29.4927 224.434 29.5175 224.811 29.5175H226.329C227.064 29.5175 227.679 29.4778 228.175 29.3984C228.671 29.3091 229.098 29.1503 229.455 28.9221C229.823 28.6839 230.145 28.3564 230.423 27.9396C230.701 27.5129 230.984 26.9621 231.271 26.2873L231.658 26.3468L230.348 30.5Z" fill="#FFDE9D"/>
</svg>
